<?xml version="1.0" encoding="UTF-8"?>
<svg id="Layer_1" data-name="Layer 1" xmlns="http://www.w3.org/2000/svg" viewBox="0 0 50 50">
  <defs>
    <style>
      .cls-1, .cls-2 {
        fill: none;
        stroke: #fff;
        stroke-width: 2px;
      }

      .cls-2 {
        stroke-linecap: round;
        stroke-linejoin: round;
      }
    </style>
  </defs>
  <path class="cls-2" d="m30.51,13.71h-11.22c-3.1,0-5.61,2.51-5.61,5.61v11.22c0,3.1,2.51,5.61,5.61,5.61h11.22c3.1,0,5.61-2.51,5.61-5.61v-11.22c0-3.1-2.51-5.61-5.61-5.61Z"/>
  <path class="cls-2" d="m29.39,24.22c.14.93-.02,1.89-.46,2.72-.43.84-1.12,1.52-1.97,1.94-.84.42-1.8.57-2.73.42-.93-.15-1.79-.59-2.46-1.26-.67-.67-1.11-1.53-1.26-2.46-.15-.93,0-1.89.42-2.73.42-.84,1.1-1.53,1.94-1.97.84-.43,1.79-.59,2.72-.46.95.14,1.83.59,2.51,1.27.68.68,1.12,1.56,1.27,2.51Z"/>
  <path class="cls-2" d="m31.07,18.75h.01"/>
  <circle class="cls-1" cx="25" cy="25" r="24"/>
</svg>