<?xml version="1.0" encoding="UTF-8"?>
<svg id="Layer_1" data-name="Layer 1" xmlns="http://www.w3.org/2000/svg" viewBox="0 0 50 50">
  <defs>
    <style>
      .cls-1, .cls-2 {
        fill: none;
        stroke: #fff;
        stroke-width: 2px;
      }

      .cls-2 {
        stroke-linecap: round;
        stroke-linejoin: round;
      }
    </style>
  </defs>
  <circle class="cls-1" cx="25" cy="25" r="24"/>
  <path class="cls-2" d="m37.12,15.16c-1.06.74-2.22,1.31-3.46,1.68-.66-.76-1.55-1.3-2.53-1.54-.98-.24-2.01-.18-2.96.18-.94.36-1.76,1-2.32,1.83s-.87,1.82-.85,2.83v1.1c-1.94.05-3.86-.38-5.59-1.25-1.73-.87-3.22-2.15-4.33-3.73,0,0-4.41,9.88,5.51,14.27-2.27,1.53-4.97,2.3-7.71,2.2,9.92,5.49,22.04,0,22.04-12.62,0-.31-.03-.61-.09-.91,1.12-1.1,1.92-2.5,2.29-4.03h0Z"/>
</svg>