<?xml version="1.0" encoding="UTF-8"?>
<svg id="Layer_1" data-name="Layer 1" xmlns="http://www.w3.org/2000/svg" viewBox="0 0 50 50">
  <defs>
    <style>
      .cls-1, .cls-2 {
        fill: none;
        stroke: #fff;
        stroke-width: 2px;
      }

      .cls-2 {
        stroke-linecap: round;
        stroke-linejoin: round;
      }
    </style>
  </defs>
  <circle class="cls-1" cx="25" cy="25" r="24"/>
  <path class="cls-2" d="m36.8,18.88c-.13-.53-.4-1.02-.79-1.41-.38-.39-.86-.68-1.39-.83-1.93-.47-9.65-.47-9.65-.47,0,0-7.72,0-9.65.52-.53.15-1.01.44-1.39.83s-.65.88-.79,1.41c-.35,1.96-.53,3.94-.52,5.93-.01,2,.16,4.01.52,5.98.15.52.42.99.81,1.36s.85.65,1.37.79c1.93.52,9.65.52,9.65.52,0,0,7.72,0,9.65-.52.53-.15,1.01-.44,1.39-.83.38-.39.65-.88.79-1.41.35-1.94.52-3.91.52-5.89.01-2-.16-4.01-.52-5.98h0Z"/>
  <path class="cls-2" d="m22.46,28.52l6.45-3.67-6.45-3.67v7.34Z"/>
</svg>