<?xml version="1.0" encoding="UTF-8"?>
<svg id="Layer_1" data-name="Layer 1" xmlns="http://www.w3.org/2000/svg" viewBox="0 0 70 70">
  <defs>
    <style>
      .cls-1 {
        stroke: #66fcf1;
      }

      .cls-1, .cls-2 {
        fill: none;
        stroke-width: 4px;
      }

      .cls-2 {
        stroke: #fff;
        stroke-linecap: round;
        stroke-linejoin: round;
      }
    </style>
  </defs>
  <path class="cls-2" d="m48.4,23.7c-.8-.8-1.8-1.4-2.8-1.9-1-.4-2.2-.7-3.3-.7s-2.3.2-3.3.7c-1,.4-2,1.1-2.8,1.9l-1.7,1.7-1.7-1.7c-1.6-1.6-3.8-2.5-6.1-2.5s-4.5.9-6.1,2.5-2.5,3.8-2.5,6.1.9,4.5,2.5,6.1l1.7,1.7,12.2,12.2,12.2-12.2,1.7-1.7c.8-.8,1.4-1.8,1.9-2.8.4-1,.7-2.2.7-3.3s-.2-2.3-.7-3.3c-.5-1-1.1-2-1.9-2.8Z"/>
  <circle class="cls-1" cx="35" cy="35" r="33"/>
</svg>