<?xml version="1.0" encoding="UTF-8"?>
<svg id="Layer_1" data-name="Layer 1" xmlns="http://www.w3.org/2000/svg" viewBox="0 0 70 70">
  <defs>
    <style>
      .cls-1, .cls-2 {
        fill: none;
        stroke: #fff;
        stroke-width: 4px;
      }

      .cls-2 {
        stroke-linecap: round;
        stroke-linejoin: round;
      }
    </style>
  </defs>
  <path class="cls-2" d="m48.37,23.74c-.8-.8-1.76-1.44-2.81-1.87-1.05-.43-2.18-.66-3.31-.66s-2.26.22-3.31.66c-1.05.43-2,1.07-2.81,1.87l-1.67,1.66-1.67-1.66c-1.62-1.62-3.82-2.53-6.12-2.53s-4.5.91-6.12,2.53c-1.62,1.62-2.53,3.82-2.53,6.11s.91,4.49,2.53,6.11l1.67,1.66,12.24,12.22,12.24-12.22,1.67-1.66c.8-.8,1.44-1.75,1.88-2.8.44-1.05.66-2.17.66-3.31s-.22-2.26-.66-3.31c-.44-1.05-1.07-2-1.88-2.8Z"/>
  <circle class="cls-1" cx="35" cy="35" r="33"/>
</svg>