<?xml version="1.0" encoding="UTF-8"?>
<svg id="Layer_1" data-name="Layer 1" xmlns="http://www.w3.org/2000/svg" viewBox="0 0 50 50">
  <defs>
    <style>
      .cls-1 {
        stroke: #f2790f;
      }

      .cls-1, .cls-2 {
        fill: none;
        stroke-width: 2px;
      }

      .cls-2 {
        stroke: #fff;
        stroke-linecap: round;
        stroke-linejoin: round;
      }
    </style>
  </defs>
  <circle class="cls-1" cx="25" cy="25" r="24"/>
  <path class="cls-2" d="m36.17,30.44v2.98c0,.28-.06.55-.18.8-.12.25-.29.48-.51.67-.22.19-.48.33-.76.42-.28.09-.58.12-.88.1-3.29-.33-6.45-1.38-9.23-3.05-2.58-1.52-4.78-3.56-6.42-5.96-1.81-2.59-2.93-5.54-3.28-8.61-.03-.27,0-.55.1-.81.09-.26.25-.5.45-.71.2-.2.44-.37.72-.48.27-.11.57-.17.86-.17h3.21c.52,0,1.02.17,1.42.48.39.31.65.75.72,1.23.14.95.39,1.89.75,2.79.14.36.18.74.09,1.11-.09.37-.28.71-.57.98l-1.36,1.26c1.52,2.49,3.74,4.55,6.42,5.96l1.36-1.26c.29-.27.66-.45,1.06-.53.4-.08.82-.05,1.2.08.97.34,1.98.57,3.01.7.52.07.99.31,1.33.68.34.37.52.85.51,1.33Z"/>
</svg>